<svg xmlns="http://www.w3.org/2000/svg" viewBox="0 0 110 110">
<g fill="none" stroke-linecap="round" stroke-linejoin="round">
 <g stroke="#f3eee2" stroke-width="4">
  <path d="M55 48C37 37 32 19 42 14c10-5 18 8 17 25"/>
  <path d="M58 47c7-20 23-29 31-21 8 8-3 20-22 26"/>
  <path d="M63 53c21-2 36 8 32 19-4 10-22 8-37-5"/>
  <path d="M56 61c11 18 8 35-3 36-11 1-16-15-10-34"/>
  <path d="M47 57c-18 12-36 9-36-2 0-11 17-16 36-9"/>
 </g>
 <circle cx="55" cy="54" r="10" stroke="#e1a044" stroke-width="5"/>
 <path d="M71 78c12-1 20 4 24 13-11 2-19-2-24-13ZM67 75c-1 12-7 19-17 21-1-11 4-18 17-21Z" stroke="#9eae70" stroke-width="3"/>
</g>
</svg>