<svg xmlns="http://www.w3.org/2000/svg" viewBox="0 0 150 90">
<g fill="none" stroke="#d5aa6d" stroke-width="3.3" stroke-linecap="round" stroke-linejoin="round">
 <circle cx="39" cy="66" r="19"/><circle cx="39" cy="66" r="10"/>
 <circle cx="112" cy="69" r="13"/><circle cx="112" cy="69" r="6"/>
 <path d="M50 65h48l7-22h24l7 18-11 9"/>
 <path d="M61 64V31h37v34M62 31l10-15h24l2 15M75 17v47"/>
 <path d="M100 43H72M111 43V26h5M121 43h11"/>
 <path d="M21 67H8M58 75h38M124 80h18"/>
 <path d="M9 82c27-7 44 5 65 0 27-7 46 4 68-2" stroke="#9eae70" stroke-width="2"/>
</g>
</svg>