<svg xmlns="http://www.w3.org/2000/svg" viewBox="0 0 620 130">
<g fill="none" stroke="#b9c5ad" stroke-linecap="round" stroke-linejoin="round">
  <path d="M4 116H616" opacity=".38" stroke-width="2"/>
  <g stroke-width="3.2" opacity=".92">
    <path d="M22 116V82M22 82l-18 20m18-20 17 20m-17-36L8 87m14-21 14 21"/>
    <path d="M70 116V58M70 58L43 92m27-34 29 34M70 40 48 70m22-30 24 30"/>
    <path d="M126 116V76M126 76l-20 25m20-25 21 25m-21-41-16 23m16-23 17 23"/>
    <path d="M176 116V47M176 47l-34 43m34-43 34 43m-34-61-27 38m27-38 28 38"/>
    <path d="M238 116V71M238 71l-22 28m22-28 24 28m-24-45-18 25m18-25 19 25"/>
    <path d="M288 116V34M288 34l-40 52m40-52 42 52m-42-72-32 45m32-45 34 45"/>
    <path d="M361 116V66M361 66l-25 32m25-32 27 32m-27-50-20 28m20-28 22 28"/>
    <path d="M419 116V44M419 44l-35 45m35-45 37 45m-37-63-28 39m28-39 30 39"/>
    <path d="M484 116V73M484 73l-21 27m21-27 22 27m-22-43-17 24m17-24 18 24"/>
    <path d="M534 116V53M534 53l-31 39m31-39 33 39m-33-56-25 34m25-34 27 34"/>
    <path d="M590 116V78M590 78l-19 23m19-23 20 23m-20-37-15 21m15-21 16 21"/>
  </g>
</g>
</svg>