<svg xmlns="http://www.w3.org/2000/svg" viewBox="0 0 700 700">
<g fill="none" stroke="#9eae70" stroke-width="3.2" stroke-linecap="round">
  <path d="M355 35C543 43 671 188 663 368C655 551 520 674 342 663C164 652 35 526 39 346C43 165 174 27 355 35Z"/>
  <path d="M353 82C507 88 618 211 611 363C604 516 493 620 346 611C197 602 85 494 89 349C93 201 204 76 353 82Z"/>
  <path d="M351 132C474 138 564 235 558 359C552 484 460 565 345 558C225 551 136 463 140 349C144 229 232 126 351 132Z"/>
  <path d="M349 184C442 189 511 261 506 356C501 451 433 511 344 506C254 501 188 434 191 349C194 257 260 179 349 184Z"/>
  <path d="M348 235C410 239 458 288 454 354C450 418 404 458 343 454C283 450 238 405 241 349C244 287 288 231 348 235Z"/>
  <path d="M347 286C382 289 408 316 406 352C404 387 378 408 343 406C309 404 286 379 288 348C290 314 314 284 347 286Z"/>
  <path d="M346 322C362 323 374 336 373 351C372 367 360 376 344 374C329 373 319 361 321 348C322 334 332 321 346 322Z"/>
</g>
</svg>