<svg xmlns="http://www.w3.org/2000/svg" viewBox="0 0 700 700">
<g fill="none" stroke="#d4bd89" stroke-width="3">
  <path d="M355 40C535 50 666 188 660 365C654 547 519 665 345 660C168 655 43 526 40 351C37 170 174 31 355 40Z"/>
  <path d="M352 88C500 95 611 211 606 361C601 508 492 611 347 607C200 603 94 494 92 350C90 202 204 81 352 88Z"/>
  <path d="M350 139C466 145 557 237 552 359C547 478 459 557 346 553C230 549 144 461 143 350C142 231 232 133 350 139Z"/>
  <path d="M349 190C438 195 504 264 500 357C496 447 431 503 344 500C257 497 194 432 194 350C194 261 260 186 349 190Z"/>
  <path d="M348 242C407 245 452 292 449 354C446 415 402 452 343 450C285 448 243 405 244 350C245 291 289 239 348 242Z"/>
  <path d="M347 292C379 294 403 318 402 352C400 384 377 403 343 402C311 401 291 378 292 349C293 317 315 290 347 292Z"/>
  <path d="M346 326C361 327 371 338 370 352C369 366 359 373 344 372C330 371 321 361 322 349C323 336 333 325 346 326Z"/>
</g>
</svg>